# xmcd CD database file
#
# Track frame offsets:
#	150
#	15756
#	32001
#	54256
#	81595
#	96694
#	116288
#	144113
#	166876
#	196966
#	214426
#	234026
#	247526
#	271976
#
# Disc length: 3875 seconds
#
# Revision: 0
# Processed by: cddbd v1.5.2PL0 Copyright (c) Steve Scherf et al.
# Submitted via: jetAudio 7
#
DISCID=a90f210e
DTITLE=Зинчук Виктор - Неолирика
DYEAR=1900
DGENRE=Easy Listening
TTITLE0=Lolita (Лолита)
TTITLE1=Greensleeves (Зеленые рукава)
TTITLE2=I Can't Help Falling In Love (Я влюблен в тебя)
TTITLE3=Speak Softly Love (Мелодия из к/ф "Крестный 
TTITLE3=отец")
TTITLE4=Only You (Только ты)
TTITLE5=Gomez' Romance (Романс Гомеса)
TTITLE6=Mammy Blue (Мама, мне грустно)
TTITLE7=Sidewalk Cafe (Придорожное кафе)
TTITLE8=House Of The Rising Sun (Дом Восходящего Солн
TTITLE8=ца)
TTITLE9=Concerto de Aranjuez - Adagio (Концерт Аранхуэс 
TTITLE9=Адажио)
TTITLE10=El Condor Pasa (Полет орла)
TTITLE11=Yakety Axe (Топор Йекети)
TTITLE12=Besame Mucho (Целуй меня крепче)
TTITLE13=Lost In The Rain (Брошенный под дождем)
EXTD=
EXTT0=
EXTT1=
EXTT2=
EXTT3=
EXTT4=
EXTT5=
EXTT6=
EXTT7=
EXTT8=
EXTT9=
EXTT10=
EXTT11=
EXTT12=
EXTT13=
PLAYORDER=
